<svg id="Layer_1" height="512" viewBox="0 0 512 512" width="512" xmlns="http://www.w3.org/2000/svg" data-name="Layer 1"><path d="m275.352 385.167c0-52.833 40.221-96.655 92.324-103.8a110.425 110.425 0 0 0 -15-1.028c-59.179 0-107.324 47.028-107.324 104.833s48.148 104.828 107.324 104.828a110.264 110.264 0 0 0 15-1.029c-52.103-7.149-92.324-50.971-92.324-103.804z" fill="#d4e1f4"/><g fill="#0635c9"><path d="m343.946 10h-277.215a26.824 26.824 0 0 0 -26.731 26.855v438.074a26.824 26.824 0 0 0 26.731 26.855h277.215a6 6 0 0 0 0-12h-277.215a14.81 14.81 0 0 1 -14.731-14.855v-438.074a14.81 14.81 0 0 1 14.731-14.855h277.215a14.81 14.81 0 0 1 14.731 14.855v238.1a6 6 0 0 0 12 0v-238.1a26.823 26.823 0 0 0 -26.731-26.855z"/><path d="m334.046 163.452a8.009 8.009 0 0 0 8-8v-99.071a8.009 8.009 0 0 0 -8-8h-258.665a8.009 8.009 0 0 0 -8 8v99.071a8.009 8.009 0 0 0 8 8zm-254.665-103.071h250.665v91.071h-250.665z"/><path d="m337.083 281.383a6 6 0 0 0 6-6v-81.007a8.089 8.089 0 0 0 -8.073-8.085h-263.487a8.089 8.089 0 0 0 -8.074 8.085v270.2a8.089 8.089 0 0 0 8.074 8.086h168.777a5.912 5.912 0 0 0 4.074 0h31.5a6 6 0 0 0 0-12h-27.535v-31.945a6 6 0 0 0 -12 0v31.947h-76.061v-55.113h80.022a6 6 0 1 0 0-12h-80.022v-58.342h79.969v11.8a6 6 0 0 0 12 0v-11.8h2.595a6 6 0 0 0 0-12h-2.595v-56.256h78.836v8.43a6 6 0 0 0 6 6zm-96.836-83.092v56.662h-79.969v-56.662zm-91.969 0v56.662h-72.829v-56.662zm-72.829 68.662h72.829v56.256h-72.829zm72.829 193.711h-72.829v-55.113h72.829zm0-67.113h-72.829v-58.342h72.829zm91.969-70.342h-79.969v-56.256h79.969zm12-68.256v-56.662h78.836v56.662z"/></g><path d="m352.676 268.334c-65.8 0-119.324 52.411-119.324 116.833s53.529 116.833 119.324 116.833 119.324-52.411 119.324-116.833-53.529-116.833-119.324-116.833zm0 221.666c-59.179 0-107.324-47.028-107.324-104.833s48.148-104.833 107.324-104.833 107.324 47.028 107.324 104.833-48.145 104.833-107.324 104.833z" fill="#1ae5be"/><path d="m360.409 325.3v-8.54a6 6 0 1 0 -12 0v8.553a28.624 28.624 0 0 0 -16.14 7.758c-8.977 8.749-9.506 21.015-9.454 24.565.2 13.788 10.675 25.422 25.47 28.292l1.343.263c1.121.219 2.491.488 3.333.648.515.1 1.715.457 2.355.648a6.059 6.059 0 0 1 .638.232c.079.034.159.067.24.1l2.063.786a6.217 6.217 0 0 1 .605.267c.993.5 1.236.645 1.958 1.064.3.172.651.378 1.075.62l.241.152c.066.043.142.09.227.141 2.172 1.311 13.03 8.369 13.463 18.666.259 6.161-1.328 10.868-4.851 14.391-4.856 4.856-13.079 6.773-19.072 6.523-12.638-.531-20.1-10.782-20.728-16.372a6 6 0 1 0 -11.925 1.337c1.739 15.508 17.151 24.937 29.158 26.728v7.291a6 6 0 1 0 12 0v-7.644c6.617-1.185 13.706-4.031 19.053-9.378 5.862-5.862 8.751-13.947 8.354-23.38-.672-15.979-14.843-25.77-19.275-28.449-.069-.044-.5-.312-.582-.361-.478-.272-.825-.474-1.113-.641-.852-.495-1.317-.761-2.559-1.39a18.309 18.309 0 0 0 -1.755-.777l-1.958-.746a18.05 18.05 0 0 0 -1.815-.653c-1.283-.383-2.52-.744-3.555-.941-.825-.157-2.17-.42-3.269-.636l-1.363-.266c-10.749-2.085-15.66-9.883-15.759-16.686-.07-4.821 1.425-11.5 5.831-15.8 3.51-3.42 8.581-5.023 15.068-4.76 17.8.719 21.88 15.694 22.066 16.417a6 6 0 0 0 11.661-2.831 34.789 34.789 0 0 0 -29.029-25.191z" fill="#1ae5be"/></svg>